HIERARCHY
ROOT Hips
{
	OFFSET 0.000000 0.000000 0.000000 
	CHANNELS 6 Xposition Yposition Zposition Yrotation Zrotation Xrotation 
	JOINT Lumbar
	{
		OFFSET 0.000000 0.000000 0.000000 
		CHANNELS 3 Zrotation Xrotation Yrotation
		JOINT Neck
		{
			OFFSET 0.000000 0.445665 0.000000 
			CHANNELS 3 Zrotation Xrotation Yrotation
			End Site
			{
				OFFSET 0.000000 0.227535 0.000000 
			}
		}
		JOINT RightShoulder
		{
			OFFSET 0.019635 0.377685 0.194865 
			CHANNELS 3 Zrotation Xrotation Yrotation
			JOINT RightElbow
			{
				OFFSET 0.000000 -0.243375 0.000000 
				CHANNELS 2 Zrotation Yrotation
				JOINT RightWrist
				{
					OFFSET 0.000000 -0.264825 0.000000 
					CHANNELS 2 Zrotation Xrotation
					End Site
					{
						OFFSET 0.006600 -0.176220 0.000990 
					}
				}
			}
		}
		JOINT LeftShoulder
		{
			OFFSET 0.019635 0.377685 -0.194865 
			CHANNELS 3 Zrotation Xrotation Yrotation
			JOINT LeftElbow
			{
				OFFSET 0.000000 -0.243375 0.000000 
				CHANNELS 2 Zrotation Yrotation
				JOINT LeftWrist
				{
					OFFSET 0.000000 -0.264825 0.000000 
					CHANNELS 2 Zrotation Xrotation
					End Site
					{
						OFFSET 0.006600 -0.176220 -0.000990 
					}
				}
			}
		}
	}
	JOINT RightHip
	{
		OFFSET 0.052140 -0.069960 0.075570 
		CHANNELS 3 Zrotation Xrotation Yrotation
		JOINT RightKnee
		{
			OFFSET 0.000000 -0.402270 0.000000 
			CHANNELS 1 Zrotation
			JOINT RightAnkle
			{
				OFFSET 0.000000 -0.404085 0.000000 
				CHANNELS 3 Zrotation Xrotation Yrotation
				End Site
				{
					OFFSET 0.204105 -0.089430 0.008415 
				}
			}
		}
	}
	JOINT LeftHip
	{
		OFFSET 0.052140 -0.069960 -0.075570 
		CHANNELS 3 Zrotation Xrotation Yrotation
		JOINT LeftKnee
		{
			OFFSET 0.000000 -0.402270 0.000000 
			CHANNELS 1 Zrotation
			JOINT LeftAnkle
			{
				OFFSET 0.000000 -0.404085 0.000000 
				CHANNELS 3 Zrotation Xrotation Yrotation
				End Site
				{
					OFFSET 0.204105 -0.089430 -0.008415 
				}
			}
		}
	}
}
MOTION
Frames: 13
Frame Time: 0.02
0.12707 0.0165 0.65496 190.06294 -44.77508 -5.33736 52.20659 2.73104 1.61013 -1.5006 -13.00435 -2.11994 -21.00688 -17.87052 15.60464 105.84524 77.59219 -23.64632 -1.13431 157.89277 49.0123 84.71466 5.79992 -80.743 -0.75885 -3.92851 36.22448 -15.41655 -8.83114 -3.25646 -12.51487 -4.69652 -5.01126 50.39608 -0.49714 14.70482 -19.87193 -8.11146 4.00127 4.2633
0.12694 0.01652 0.65589 190.29152 -44.93605 -5.33027 52.10174 2.79947 1.83756 -0.74785 -13.33456 -2.11994 -21.11296 -17.90814 15.62551 106.03472 77.573 -22.92223 -1.268 157.50609 49.0464 88.98626 5.7819 -80.70388 -0.85356 -4.0047 36.15827 -15.42524 -8.53272 -2.98856 -12.72913 -4.84653 -5.10419 50.49966 -0.42577 15.51207 -19.84268 -8.03826 3.91986 4.22062
0.1268 0.01642 0.65684 190.60542 -45.13866 -5.28483 52.06261 2.79233 2.18489 -0.17408 -13.31487 -2.11994 -21.30929 -18.0596 15.62234 106.27956 77.56924 -21.75361 -1.49682 156.75428 49.08719 86.42741 5.7875 -80.75356 -0.88352 -3.88952 36.09642 -15.45066 -8.18202 -2.67638 -12.96058 -5.00121 -5.22647 50.64256 -0.33767 16.58362 -19.82816 -7.93421 3.81428 4.16468
0.12665 0.01638 0.65777 190.88044 -45.31892 -5.25982 51.99416 2.82059 2.46503 0.46668 -13.45423 -2.11994 -21.45424 -18.15241 15.63346 106.49032 77.53419 -20.84812 -1.66984 156.19355 49.12164 87.17459 5.78848 -80.73713 -0.93598 -3.86394 36.02849 -15.46571 -7.96913 -2.38674 -13.16934 -5.10247 -5.30581 50.76469 -0.26094 17.49039 -19.80669 -7.8477 3.72324 4.11666
0.12657 0.01633 0.65874 191.15491 -45.51334 -5.22265 51.92104 2.84543 2.80307 1.17109 -13.59156 -2.11994 -21.649 -18.26786 15.62487 106.74184 77.59403 -19.70229 -1.88957 155.52081 49.16968 87.30856 5.78651 -80.74693 -0.98752 -3.8126 35.97816 -15.49265 -7.2728 -2.08731 -13.43865 -5.42335 -5.50985 50.89877 -0.16859 18.58381 -19.78617 -7.74657 3.61737 4.06075
0.12634 0.01627 0.65964 191.45129 -45.68825 -5.20134 51.87413 2.85891 3.04799 1.69886 -13.6504 -2.11994 -21.76035 -18.36505 15.65239 106.92092 77.46619 -18.94093 -2.03793 154.9958 49.19073 87.00171 5.78796 -80.75349 -1.03641 -3.77448 35.89245 -15.49894 -7.57036 -1.79842 -13.59119 -5.28138 -5.45867 51.01741 -0.10466 19.35317 -19.76722 -7.66838 3.53647 4.01802
0.12565 0.01627 0.66037 191.78572 -45.79939 -5.23509 51.88385 2.86125 2.99853 1.7869 -13.58225 -2.11994 -21.60417 -18.39244 15.80251 106.88016 76.77552 -19.39612 -1.95491 154.98181 49.14087 87.19446 5.78743 -80.74679 -1.10348 -3.8272 35.70366 -15.44153 -10.63769 -1.53921 -13.36081 -3.93106 -4.72989 51.08382 -0.12381 19.14798 -19.74886 -7.66221 3.53179 4.01572
0.12481 0.01626 0.66102 192.13951 -45.88942 -5.28571 51.91793 2.85433 2.85206 1.70217 -13.44673 -2.11994 -21.36268 -18.39716 15.98791 106.76515 75.90423 -20.24268 -1.79956 155.12758 49.06297 87.13656 5.78723 -80.74258 -1.17269 -3.9006 35.47985 -15.36322 -14.70131 -1.29381 -13.02119 -2.10585 -3.73936 51.13334 -0.17203 18.61051 -19.7316 -7.67995 3.55281 4.02701
0.12406 0.01626 0.66171 192.48584 -45.98903 -5.32736 51.94104 2.85034 2.75435 1.69339 -13.33971 -2.11994 -21.16915 -18.40754 16.14668 106.68781 75.14213 -20.87839 -1.68537 155.19219 48.99424 87.13096 5.78726 -80.73773 -1.23907 -3.96182 35.27473 -15.2961 -18.30612 -1.04866 -12.76962 -0.44704 -2.84399 51.19067 -0.20654 18.23498 -19.71392 -7.68596 3.56118 4.03156
0.12325 0.01625 0.66242 192.83024 -46.09031 -5.37327 51.96614 2.84902 2.64083 1.68929 -13.22945 -2.11994 -20.94019 -18.44065 16.34809 106.59624 74.26348 -21.63968 -1.5396 155.27993 48.93985 87.15466 5.78701 -80.73203 -1.31063 -4.02789 35.05787 -15.22231 -21.95069 -0.77459 -12.36161 1.01904 -2.04159 51.24892 -0.24252 17.82212 -19.69643 -7.69452 3.57283 4.03799
0.12251 0.01625 0.66306 193.1812 -46.18237 -5.41471 51.99181 2.84106 2.53604 1.63666 -13.11442 -2.11994 -20.76345 -18.42049 16.47081 106.51551 73.58772 -22.23609 -1.44099 155.36235 48.85007 87.14192 5.78693 -80.72828 -1.37266 -4.09127 34.85734 -15.15738 -25.72946 -0.56442 -12.24694 2.97929 -0.99361 51.30057 -0.28262 17.40515 -19.67859 -7.70387 3.58407 4.04393
0.12201 0.01627 0.66355 193.55308 -46.25538 -5.44076 52.01459 2.81595 2.47459 1.49344 -13.00534 -2.11994 -20.75206 -18.25047 16.35597 106.48615 73.48791 -22.30131 -1.49173 155.39205 48.65918 87.14694 5.78691 -80.72888 -1.4113 -4.14406 34.70835 -15.12059 -29.80937 -0.52924 -13.02314 6.36041 0.75968 51.33928 -0.3264 17.05227 -19.65962 -7.70973 3.58786 4.04511
0.12158 0.0163 0.66399 193.92894 -46.31936 -5.46172 52.03645 2.78503 2.42543 1.30799 -12.89511 -2.11994 -20.79565 -18.02862 16.16305 106.46942 73.60292 -22.18631 -1.59162 155.41256 48.43563 87.14711 5.78691 -80.73153 -1.44006 -4.19403 34.57742 -15.09361 -33.95766 -0.55782 -14.08816 10.19042 2.73432 51.37145 -0.37351 16.70628 -19.64018 -7.71571 3.59051 4.04541
